<svg width="48" height="48" viewBox="0 0 48 48" fill="none" xmlns="http://www.w3.org/2000/svg">
<circle cx="24" cy="24" r="24" fill="#F3BA2F"/>
<path fill-rule="evenodd" clip-rule="evenodd" d="M24 15.232L17.7853 21.4467L17.7855 21.4464L14.1696 17.8304L24 8L33.8336 17.8333L30.2176 21.4493L24 15.232ZM11.6161 20.3834L8 24L11.6159 27.6154L15.232 23.9992L11.6161 20.3834ZM24 32.768L17.7853 26.5537L14.1645 30.1645L14.1696 30.1696L24 40L33.8336 30.1668L33.8354 30.1649L30.2175 26.5508L24 32.768ZM36.3841 20.3854L32.768 24.0015L36.384 27.6174L40 24.0013L36.3841 20.3854ZM27.669 23.998H27.6677L27.671 23.9998L27.6692 24.0019L24 27.6711L20.3339 24.0046L20.3288 23.9993L20.3339 23.9943L20.9765 23.3516L21.288 23.0399L24 20.3288L27.669 23.998Z" fill="black"/>
</svg>
