<svg width="20" height="20" viewBox="0 0 20 20" fill="none" xmlns="http://www.w3.org/2000/svg">
<path fill-rule="evenodd" clip-rule="evenodd" d="M4.06058 3.80356C3.28159 4.8004 3.04095 6.27067 3.00499 8.37988C4.62542 8.37922 6 9.69561 6 11.3807V13.6199C6 15.4836 4.31862 16.8963 2.48286 16.575C1.04734 16.3238 0 15.0772 0 13.6199V11.3807C0 10.4966 0.38546 9.69005 1.00921 9.13627C1.00314 9.09171 1 9.04622 1 9C1 6.61251 1.15613 4.27218 2.48469 2.57207C3.86415 0.80683 6.26385 0 9.9999 0C13.7359 0 16.1357 0.806831 17.5152 2.57205C18.8438 4.27216 19 6.61249 19 9C19 9.04604 18.9969 9.09135 18.9909 9.13574C19.6146 9.68952 20 10.496 20 11.3801V13.6193C20 14.9141 19.1733 16.0425 17.982 16.4543C17.9239 17.1642 17.7198 17.8077 17.3015 18.3471C16.7982 18.9963 16.0846 19.3655 15.3026 19.5871C14.5287 19.8064 13.606 19.9041 12.5803 19.952C11.5533 20 10.3574 20 9.01931 20H9.01915H9C8.44771 20 8 19.5523 8 19C8 18.4477 8.44771 18 9 18C10.3607 18 11.5115 17.9998 12.487 17.9542C13.4688 17.9084 14.2079 17.8186 14.7573 17.6629C15.2986 17.5095 15.5701 17.3162 15.7209 17.1216C15.8287 16.9827 15.9271 16.7757 15.9729 16.4393C14.8361 16.0235 14 14.9335 14 13.6193V11.3801C14 9.69502 15.3746 8.37863 16.995 8.37929C16.959 6.27042 16.7183 4.80033 15.9393 3.80358C15.137 2.77692 13.5367 2 9.9999 2C6.46311 2 4.86286 2.77692 4.06058 3.80356ZM4 11.3807C4 10.7595 3.43954 10.2886 2.82762 10.3957C2.34911 10.4794 2 10.8949 2 11.3807V13.6199C2 14.1057 2.34911 14.5212 2.82762 14.6049C3.43954 14.712 4 14.2411 4 13.6199V11.3807ZM17.1724 14.6043C16.5605 14.7114 16 14.2405 16 13.6193V11.3801C16 10.7589 16.5605 10.288 17.1724 10.3951C17.6509 10.4788 18 10.8943 18 11.3801V13.6193C18 14.1051 17.6509 14.5206 17.1724 14.6043Z" fill="black"/>
</svg>
