<svg width="48" height="48" viewBox="0 0 48 48" fill="none" xmlns="http://www.w3.org/2000/svg">
<rect width="48" height="48" rx="24" fill="#ECECEC"/>
<path d="M15 20.2667C15.013 20.1775 15.0318 20.0887 15.037 19.9991C15.069 19.4757 15.1446 18.9558 15.2631 18.445C16.1406 14.6339 19.2421 11.736 23.1039 11.1189C23.6612 11.0249 24.2264 10.9865 24.7913 11.0042C25.2245 11.0248 25.6557 11.0761 26.0816 11.1578C27.1159 11.3448 28.1109 11.7057 29.0246 12.2253C30.6715 13.1588 31.9348 14.4651 32.8145 16.1441C34.2088 18.8247 34.2542 22.0066 32.9371 24.7259C31.6199 27.4453 29.0952 29.3823 26.1275 29.9503C25.7175 30.026 25.3033 30.0763 24.8871 30.1009C24.5082 30.1264 24.1278 30.1497 23.7526 30.2052C23.1467 30.2946 22.5782 30.5524 22.1118 30.9494C21.4994 31.4626 21.116 32.1146 20.9521 32.8958C20.8182 33.5338 20.6858 34.1722 20.5551 34.8111C20.5317 34.9262 20.5206 35.0424 20.4755 35.1531C20.248 35.6933 19.6807 36.0082 19.1019 35.9153C18.8825 35.8783 18.6745 35.828 18.4947 35.6933C18.0732 35.3784 17.8841 34.9555 17.9848 34.4404C18.1979 33.3521 18.431 32.2678 18.6612 31.184C18.9102 30.0102 19.1648 28.8376 19.4172 27.6645C19.7051 26.3277 19.9933 24.9906 20.282 23.6533C20.5188 22.556 20.756 21.4582 20.9936 20.3599C21.1234 19.7616 21.583 19.3508 22.1899 19.3053C22.827 19.2602 23.403 19.6831 23.5509 20.3044C23.5993 20.5184 23.5972 20.7408 23.5446 20.9538C23.1316 22.807 22.72 24.6607 22.3098 26.5148C22.2287 26.8823 22.171 27.2549 22.1022 27.6249C22.0963 27.6579 22.0844 27.6893 22.0778 27.7223C22.063 27.7963 22.1148 27.8444 22.1825 27.8225C22.6635 27.6705 23.1631 27.6279 23.6627 27.5894C24.1992 27.548 24.7358 27.5154 25.272 27.4666C25.7875 27.416 26.295 27.3034 26.7836 27.1313C28.7316 26.4621 30.2794 24.9584 31.0046 23.0305C31.1937 22.5295 31.3225 22.0078 31.3884 21.4763C31.4326 21.1427 31.4515 20.8063 31.445 20.4698C31.4245 19.5221 31.2105 18.5886 30.8159 17.7267C30.4648 16.9567 29.9742 16.2583 29.3691 15.6667C28.7872 15.0946 28.1071 14.6321 27.3612 14.3012C26.8606 14.079 26.3356 13.9163 25.7971 13.8165C25.2608 13.7142 24.7139 13.6785 24.1689 13.7103C22.8926 13.7876 21.7174 14.174 20.6601 14.897C19.4734 15.7078 18.6205 16.7879 18.0976 18.1267C17.8784 18.6911 17.7369 19.2827 17.6772 19.8852C17.6277 20.347 17.6225 20.8126 17.6617 21.2754C17.7058 21.7716 17.8116 22.2604 17.9766 22.7304C18.0506 22.9395 18.0917 23.153 18.065 23.3743C18.0003 23.9112 17.7191 24.2972 17.2202 24.4999C16.9131 24.6247 16.5912 24.5943 16.2852 24.4666C15.8933 24.3035 15.6324 24.0159 15.5007 23.6111C15.3332 23.1069 15.2101 22.5889 15.1328 22.0632C15.091 21.7698 15.0696 21.4763 15.037 21.1803C15.0263 21.0841 15.0111 20.9883 15 20.8924V20.2667Z" fill="black"/>
<path d="M24.5648 36.2351C24.5211 36.2206 24.4775 36.2047 24.4334 36.1922C23.7873 36.0071 23.3855 35.5816 23.2697 34.9233C23.1172 34.0592 23.6767 33.1878 24.6148 33.0557C25.484 32.9332 26.1789 33.5205 26.375 34.2258C26.4361 34.4448 26.4339 34.6668 26.4254 34.894C26.4061 35.4206 25.9502 36.0153 25.3297 36.1892C25.2956 36.2016 25.2626 36.2167 25.2309 36.2343L24.5648 36.2351Z" fill="#E6007A"/>
</svg>
