<svg width="48" height="48" viewBox="0 0 48 48" fill="none" xmlns="http://www.w3.org/2000/svg">
<rect width="48" height="48" rx="24" fill="#2DB300"/>
<path fill-rule="evenodd" clip-rule="evenodd" d="M29.6858 17.7493C30.273 19.4041 29.9598 20.7573 28.7463 21.809C29.9013 21.8003 30.8354 22.0786 31.5488 22.644C32.2622 23.2093 32.7185 24.1547 32.9177 25.4801C33.0161 26.158 33.0086 26.7779 32.8954 27.3399C32.7822 27.902 32.5842 28.391 32.3014 28.8071C32.0186 29.2232 31.6339 29.6076 31.1476 29.9602C30.6612 30.3129 30.1347 30.6137 29.5683 30.8626C29.0018 31.1114 28.341 31.349 27.586 31.5752L28.4675 35.1401L26.3146 35.6724L25.447 32.1635C24.7014 32.3478 24.1317 32.4838 23.738 32.5712L24.6091 36.0942L22.4562 36.6265L21.5747 33.0616C21.4069 33.1031 21.1547 33.163 20.818 33.2413C20.4814 33.3196 20.2245 33.3807 20.0474 33.4244L17.2514 34.1158L17.0522 31.4503L18.604 31.0666C19.07 30.9514 19.2815 30.6469 19.2385 30.1532L17.8489 24.5332L18.0726 24.4779C18.0144 24.4824 17.9386 24.4962 17.8454 24.5193L16.8533 20.507C16.5755 19.9032 16.0824 19.6889 15.3741 19.8641L13.8223 20.2478L13.2554 17.9551L16.2226 17.2362C16.8191 17.0887 17.2699 16.9723 17.5752 16.8869L16.7041 13.364L18.857 12.8316L19.7108 16.2847C20.4704 16.0771 21.0366 15.9272 21.4094 15.835L20.5625 12.4099L22.7154 11.8776L23.5865 15.4005C24.3389 15.2837 25.0172 15.2272 25.6215 15.2311C26.2257 15.235 26.8041 15.3145 27.3568 15.4696C27.9094 15.6247 28.3837 15.8931 28.7797 16.2748C29.1758 16.6565 29.4778 17.148 29.6858 17.7493ZM28.5641 26.1116C28.4811 25.7761 28.3375 25.4951 28.1332 25.2687C27.9288 25.0423 27.7034 24.8706 27.4569 24.7535C27.2104 24.6365 26.9073 24.5606 26.5476 24.5259C26.1879 24.4912 25.8614 24.4805 25.568 24.4937C25.2745 24.5069 24.9193 24.5503 24.5024 24.6237C24.0854 24.6971 23.7604 24.7627 23.5274 24.8203C23.2944 24.8779 22.995 24.9569 22.6291 25.0572C22.2633 25.1576 22.0431 25.217 21.9685 25.2354L23.1369 29.9606C23.2115 29.9422 23.3845 29.9019 23.6559 29.8397C23.9273 29.7775 24.1516 29.7245 24.3287 29.6807C24.5058 29.637 24.751 29.5689 25.0644 29.4766C25.3778 29.3842 25.6458 29.2982 25.8684 29.2184C26.091 29.1387 26.3468 29.0334 26.6359 28.9026C26.925 28.7717 27.1675 28.6426 27.3634 28.515C27.5593 28.3874 27.7565 28.2348 27.9548 28.0572C28.1532 27.8796 28.3027 27.6943 28.4033 27.5013C28.504 27.3083 28.572 27.0936 28.6076 26.8574C28.6431 26.6211 28.6286 26.3725 28.5641 26.1116ZM25.5491 18.928C25.7244 19.1368 25.85 19.395 25.9261 19.7026C25.9906 19.9635 26.0074 20.2116 25.9766 20.4467C25.9457 20.6818 25.8642 20.8923 25.7322 21.0782C25.6001 21.2642 25.4588 21.4326 25.3083 21.5836C25.1577 21.7346 24.953 21.8766 24.6942 22.0099C24.4354 22.1431 24.2081 22.2537 24.0123 22.3417C23.8164 22.4297 23.5665 22.5187 23.2624 22.6087C22.9583 22.6987 22.7276 22.7656 22.5703 22.8095C22.413 22.8533 22.1963 22.9069 21.9202 22.9702C21.6441 23.0336 21.4828 23.071 21.4362 23.0825L20.375 18.7907C20.4402 18.7745 20.6237 18.7267 20.9254 18.6471C21.2272 18.5676 21.4777 18.5007 21.6769 18.4465C21.8761 18.3923 22.1493 18.3371 22.4964 18.2809C22.8435 18.2248 23.1393 18.1912 23.3838 18.1802C23.6283 18.1692 23.9036 18.1827 24.2097 18.2207C24.5158 18.2588 24.7718 18.334 24.9775 18.4462C25.1833 18.5585 25.3738 18.7191 25.5491 18.928Z" fill="white"/>
</svg>
