<svg width="48" height="48" viewBox="0 0 48 48" fill="none" xmlns="http://www.w3.org/2000/svg">
<path d="M24 48C37.2548 48 48 37.2548 48 24C48 10.7452 37.2548 0 24 0C10.7452 0 0 10.7452 0 24C0 37.2548 10.7452 48 24 48Z" fill="#2775CA"/>
<path d="M19.5 40.6874C19.5 41.2499 19.05 41.5686 18.525 41.3999C11.25 39.0749 6 32.2874 6 24.2437C6 16.2187 11.25 9.4124 18.525 7.0874C19.0688 6.91865 19.5 7.2374 19.5 7.7999V9.20615C19.5 9.58115 19.2188 10.0124 18.8625 10.1437C13.1062 12.2624 9 17.7936 9 24.2437C9 30.7124 13.1062 36.2249 18.8625 38.3249C19.2188 38.4561 19.5 38.8874 19.5 39.2624V40.6874Z" fill="white"/>
<path d="M25.5 35.4937C25.5 35.9062 25.1625 36.2437 24.75 36.2437H23.25C22.8375 36.2437 22.5 35.9062 22.5 35.4937V33.1312C19.2187 32.6812 17.625 30.8624 17.1937 28.3499C17.1187 27.9187 17.4562 27.5437 17.8875 27.5437H19.5937C19.95 27.5437 20.25 27.8062 20.325 28.1437C20.6437 29.6249 21.5062 30.7687 24.1312 30.7687C26.0625 30.7687 27.45 29.6812 27.45 28.0687C27.45 26.4562 26.6437 25.8374 23.7937 25.3687C19.5937 24.8062 17.6062 23.5312 17.6062 20.2499C17.6062 17.7187 19.5375 15.7312 22.5 15.3187V12.9937C22.5 12.5812 22.8375 12.2437 23.25 12.2437H24.75C25.1625 12.2437 25.5 12.5812 25.5 12.9937V15.3749C27.9187 15.8062 29.4562 17.1749 29.9625 19.4624C30.0562 19.8937 29.7187 20.2874 29.2687 20.2874H27.6937C27.3562 20.2874 27.075 20.0624 26.9812 19.7437C26.55 18.2999 25.5187 17.6624 23.7187 17.6624C21.7312 17.6624 20.7 18.6187 20.7 19.9687C20.7 21.3937 21.2812 22.1062 24.3375 22.5374C28.4625 23.0999 30.6 24.2812 30.6 27.7874C30.6 30.4499 28.6125 32.6062 25.5187 33.0937V35.4937H25.5Z" fill="white"/>
<path d="M29.475 41.4C28.9312 41.5687 28.5 41.25 28.5 40.6875V39.2812C28.5 38.8687 28.7437 38.475 29.1375 38.3437C34.875 36.2437 39 30.7125 39 24.2625C39 17.7937 34.8937 12.2812 29.1375 10.1812C28.7812 10.05 28.5 9.61875 28.5 9.24375V7.8375C28.5 7.275 28.95 6.95625 29.475 7.125C36.75 9.4125 42 16.2187 42 24.2437C42 32.2875 36.75 39.075 29.475 41.4Z" fill="white"/>
</svg>
