<svg width="48" height="48" fill="none" xmlns="http://www.w3.org/2000/svg"><rect width="48" height="48" rx="24" fill="#FFA800"/><path fill-rule="evenodd" clip-rule="evenodd" d="M31.898 21.274c-.252 1.738-1.16 2.79-2.723 3.154 1.026.53 1.723 1.212 2.09 2.045.368.833.331 1.882-.11 3.147-.23.646-.525 1.19-.887 1.635a3.975 3.975 0 01-1.21 1.021c-.443.237-.963.398-1.558.483-.594.085-1.2.106-1.817.062a17.336 17.336 0 01-2.086-.293l-.882 3.565-2.153-.533.868-3.509a80.03 80.03 0 01-1.702-.435l-.871 3.523-2.153-.533.881-3.565a60.778 60.778 0 01-.753-.193c-.334-.088-.59-.154-.767-.197l-2.796-.692 1.066-2.451 1.552.384c.466.115.795-.056.987-.513l1.39-5.62.223.056a1.464 1.464 0 00-.22-.07l.992-4.012c.036-.663-.3-1.083-1.009-1.258l-1.552-.384.567-2.293 2.96.747c.597.148 1.05.255 1.36.322l.871-3.523 2.153.532-.854 3.453c.77.17 1.34.302 1.713.394l.847-3.425 2.153.532-.871 3.523c.72.248 1.346.514 1.879.799a6.551 6.551 0 011.424 1.02 3.3 3.3 0 01.884 1.375c.172.523.21 1.098.114 1.727zm-4.89 6.876c.083-.336.087-.651.012-.947a2.16 2.16 0 00-.358-.77 2.734 2.734 0 00-.699-.626 7.014 7.014 0 00-.851-.485 8.515 8.515 0 00-1.004-.382 15.49 15.49 0 00-.954-.28 38.213 38.213 0 00-.905-.21 43.06 43.06 0 01-.668-.15l-1.168 4.726c.074.018.246.063.515.135a18.332 18.332 0 001.415.335 10.469 10.469 0 001.658.225 5.5 5.5 0 00.825-.004 4.89 4.89 0 00.737-.13c.258-.064.477-.159.655-.283.18-.123.34-.282.481-.474.142-.192.245-.42.31-.68zm.68-7.761a1.89 1.89 0 01-.026.861c-.065.26-.166.488-.303.682a1.385 1.385 0 01-.51.445 3.958 3.958 0 01-.61.25c-.204.063-.452.093-.743.09-.29-.003-.543-.01-.758-.024a6.082 6.082 0 01-.788-.113c-.31-.062-.546-.11-.706-.145-.16-.035-.376-.088-.65-.161a51.135 51.135 0 00-.48-.126l1.061-4.292a95.81 95.81 0 001.312.302c.202.045.47.124.803.236.333.112.61.22.832.324.221.104.458.245.712.421.253.176.444.362.574.557.13.196.223.426.28.693z" fill="#000"/></svg>