<svg width="48" height="48" viewBox="0 0 48 48" fill="none" xmlns="http://www.w3.org/2000/svg">
<circle cx="24" cy="24" r="24" fill="#ECECEC"/>
<path d="M17 25.0703C19.6108 26.4568 22.3351 27.9081 24.4392 29.031L31.8175 25.0703C29.146 29.0391 26.92 32.3432 24.4392 36C21.954 32.3513 19.2095 28.3252 17 25.0703ZM17.2838 23.9755L24.4473 20.153L31.5175 23.9476L24.4513 27.7743L17.2838 23.9755ZM24.4392 18.9283L17 22.8446L24.4068 12L31.8175 22.8689L24.4392 18.9283Z" fill="#3AB83A"/>
<path d="M24.4392 29.031L31.8175 25.0703C29.146 29.0391 24.4392 36 24.4392 36V29.031ZM24.4473 20.153L31.5175 23.9476L24.4513 27.7743L24.4473 20.153ZM24.4392 18.9286L24.4067 12L31.8175 22.8689L24.4392 18.9286Z" fill="#0B8311"/>
<path d="M17.2838 23.9756L24.4476 24.5635L31.5179 23.9513L24.4513 27.7783L17.2838 23.9756Z" fill="#0B8311"/>
<path d="M24.4473 24.5635L31.5175 23.9513L24.4513 27.7783L24.4473 24.5635Z" fill="#146714"/>
</svg>
